<?xml version="1.0" encoding="UTF-8"?>
<!--Generator: Apple Native CoreSVG 232.5-->
<!DOCTYPE svg
PUBLIC "-//W3C//DTD SVG 1.1//EN"
       "http://www.w3.org/Graphics/SVG/1.1/DTD/svg11.dtd">
<svg version="1.1" xmlns="http://www.w3.org/2000/svg" xmlns:xlink="http://www.w3.org/1999/xlink" width="3300" height="2200">
 <!--glyph: "", point size: 100.0, font version: "19.0d8e1", template writer version: "128"-->
 <style>.SFSymbolsPreviewWireframe {fill:none;opacity:1.0;stroke:black;stroke-width:0.5}
</style>
 <g id="Notes">
  <rect height="2200" id="artboard" style="fill:white;opacity:1" width="3300" x="0" y="0"/>
  <line style="fill:none;stroke:black;opacity:1;stroke-width:0.5;" x1="263" x2="3036" y1="292" y2="292"/>
  <text style="stroke:none;fill:black;font-family:sans-serif;font-size:13;font-weight:bold;" transform="matrix(1 0 0 1 263 322)">Weight/Scale Variations</text>
  <text style="stroke:none;fill:black;font-family:sans-serif;font-size:13;text-anchor:middle;" transform="matrix(1 0 0 1 559.711 322)">Ultralight</text>
  <text style="stroke:none;fill:black;font-family:sans-serif;font-size:13;text-anchor:middle;" transform="matrix(1 0 0 1 856.422 322)">Thin</text>
  <text style="stroke:none;fill:black;font-family:sans-serif;font-size:13;text-anchor:middle;" transform="matrix(1 0 0 1 1153.13 322)">Light</text>
  <text style="stroke:none;fill:black;font-family:sans-serif;font-size:13;text-anchor:middle;" transform="matrix(1 0 0 1 1449.84 322)">Regular</text>
  <text style="stroke:none;fill:black;font-family:sans-serif;font-size:13;text-anchor:middle;" transform="matrix(1 0 0 1 1746.56 322)">Medium</text>
  <text style="stroke:none;fill:black;font-family:sans-serif;font-size:13;text-anchor:middle;" transform="matrix(1 0 0 1 2043.27 322)">Semibold</text>
  <text style="stroke:none;fill:black;font-family:sans-serif;font-size:13;text-anchor:middle;" transform="matrix(1 0 0 1 2339.98 322)">Bold</text>
  <text style="stroke:none;fill:black;font-family:sans-serif;font-size:13;text-anchor:middle;" transform="matrix(1 0 0 1 2636.69 322)">Heavy</text>
  <text style="stroke:none;fill:black;font-family:sans-serif;font-size:13;text-anchor:middle;" transform="matrix(1 0 0 1 2933.4 322)">Black</text>
  <line style="fill:none;stroke:black;opacity:1;stroke-width:0.5;" x1="263" x2="3036" y1="1903" y2="1903"/>
  <g transform="matrix(0.2 0 0 0.2 263 1933)">
   <path d="m46.2402 4.15039c21.5332 0 39.4531-17.8711 39.4531-39.4043s-17.9688-39.4043-39.502-39.4043c-21.4844 0-39.3555 17.8711-39.3555 39.4043s17.9199 39.4043 39.4043 39.4043Zm0-7.42188c-17.7246 0-31.8848-14.209-31.8848-31.9824s14.1113-31.9824 31.8359-31.9824c17.7734 0 32.0312 14.209 32.0312 31.9824s-14.209 31.9824-31.9824 31.9824Zm-17.9688-31.9824c0 2.14844 1.51367 3.61328 3.75977 3.61328h10.498v10.5957c0 2.19727 1.46484 3.71094 3.61328 3.71094 2.24609 0 3.71094-1.51367 3.71094-3.71094v-10.5957h10.5957c2.19727 0 3.71094-1.46484 3.71094-3.61328 0-2.19727-1.51367-3.71094-3.71094-3.71094h-10.5957v-10.5469c0-2.24609-1.46484-3.75977-3.71094-3.75977-2.14844 0-3.61328 1.51367-3.61328 3.75977v10.5469h-10.498c-2.24609 0-3.75977 1.51367-3.75977 3.71094Z"/>
  </g>
  <g transform="matrix(0.2 0 0 0.2 281.506 1933)">
   <path d="m58.5449 14.5508c27.2461 0 49.8047-22.6074 49.8047-49.8047 0-27.2461-22.6074-49.8047-49.8535-49.8047-27.1973 0-49.7559 22.5586-49.7559 49.8047 0 27.1973 22.6074 49.8047 49.8047 49.8047Zm0-8.30078c-23.0469 0-41.4551-18.457-41.4551-41.5039s18.3594-41.5039 41.4062-41.5039 41.5527 18.457 41.5527 41.5039-18.457 41.5039-41.5039 41.5039Zm-22.6562-41.5039c0 2.39258 1.66016 4.00391 4.15039 4.00391h14.3555v14.4043c0 2.44141 1.66016 4.15039 4.05273 4.15039 2.44141 0 4.15039-1.66016 4.15039-4.15039v-14.4043h14.4043c2.44141 0 4.15039-1.61133 4.15039-4.00391 0-2.44141-1.70898-4.15039-4.15039-4.15039h-14.4043v-14.3555c0-2.49023-1.70898-4.19922-4.15039-4.19922-2.39258 0-4.05273 1.70898-4.05273 4.19922v14.3555h-14.3555c-2.49023 0-4.15039 1.70898-4.15039 4.15039Z"/>
  </g>
  <g transform="matrix(0.2 0 0 0.2 304.924 1933)">
   <path d="m74.8535 28.3203c34.8145 0 63.623-28.8086 63.623-63.5742 0-34.8145-28.8574-63.623-63.6719-63.623-34.7656 0-63.5254 28.8086-63.5254 63.623 0 34.7656 28.8086 63.5742 63.5742 63.5742Zm0-9.08203c-30.1758 0-54.4434-24.3164-54.4434-54.4922 0-30.2246 24.2188-54.4922 54.3945-54.4922 30.2246 0 54.541 24.2676 54.541 54.4922 0 30.1758-24.2676 54.4922-54.4922 54.4922Zm-28.8574-54.4922c0 2.58789 1.85547 4.39453 4.58984 4.39453h19.7266v19.7754c0 2.68555 1.85547 4.58984 4.44336 4.58984 2.68555 0 4.54102-1.85547 4.54102-4.58984v-19.7754h19.7754c2.68555 0 4.58984-1.80664 4.58984-4.39453 0-2.73438-1.85547-4.58984-4.58984-4.58984h-19.7754v-19.7266c0-2.73438-1.85547-4.63867-4.54102-4.63867-2.58789 0-4.44336 1.9043-4.44336 4.63867v19.7266h-19.7266c-2.73438 0-4.58984 1.85547-4.58984 4.58984Z"/>
  </g>
  <text style="stroke:none;fill:black;font-family:sans-serif;font-size:13;font-weight:bold;" transform="matrix(1 0 0 1 263 1953)">Design Variations</text>
  <text style="stroke:none;fill:black;font-family:sans-serif;font-size:13;" transform="matrix(1 0 0 1 263 1971)">Symbols are supported in up to nine weights and three scales.</text>
  <text style="stroke:none;fill:black;font-family:sans-serif;font-size:13;" transform="matrix(1 0 0 1 263 1989)">For optimal layout with text and other symbols, vertically align</text>
  <text style="stroke:none;fill:black;font-family:sans-serif;font-size:13;" transform="matrix(1 0 0 1 263 2007)">symbols with the adjacent text.</text>
  <line style="fill:none;stroke:#00AEEF;stroke-width:0.5;opacity:1.0;" x1="776" x2="776" y1="1919" y2="1933"/>
  <g transform="matrix(0.2 0 0 0.2 776 1933)">
   <path d="m16.5527 0.78125c2.58789 0 3.85742-0.976562 4.78516-3.71094l6.29883-17.2363h28.8086l6.29883 17.2363c0.927734 2.73438 2.19727 3.71094 4.73633 3.71094 2.58789 0 4.24805-1.5625 4.24805-4.00391 0-0.830078-0.146484-1.61133-0.537109-2.63672l-22.9004-60.9863c-1.12305-2.97852-3.125-4.49219-6.25-4.49219-3.02734 0-5.07812 1.46484-6.15234 4.44336l-22.9004 61.084c-0.390625 1.02539-0.537109 1.80664-0.537109 2.63672 0 2.44141 1.5625 3.95508 4.10156 3.95508Zm13.4766-28.3691 11.8652-32.8613h0.244141l11.8652 32.8613Z"/>
  </g>
  <line style="fill:none;stroke:#00AEEF;stroke-width:0.5;opacity:1.0;" x1="792.836" x2="792.836" y1="1919" y2="1933"/>
  <text style="stroke:none;fill:black;font-family:sans-serif;font-size:13;font-weight:bold;" transform="matrix(1 0 0 1 776 1953)">Margins</text>
  <text style="stroke:none;fill:black;font-family:sans-serif;font-size:13;" transform="matrix(1 0 0 1 776 1971)">Leading and trailing margins on the left and right side of each symbol</text>
  <text style="stroke:none;fill:black;font-family:sans-serif;font-size:13;" transform="matrix(1 0 0 1 776 1989)">can be adjusted by modifying the x-location of the margin guidelines.</text>
  <text style="stroke:none;fill:black;font-family:sans-serif;font-size:13;" transform="matrix(1 0 0 1 776 2007)">Modifications are automatically applied proportionally to all</text>
  <text style="stroke:none;fill:black;font-family:sans-serif;font-size:13;" transform="matrix(1 0 0 1 776 2025)">scales and weights.</text>
  <g transform="matrix(0.2 0 0 0.2 1289 1933)">
   <path d="m14.209 9.32617 8.49609 8.54492c4.29688 4.3457 9.22852 4.05273 13.8672-1.07422l53.4668-58.9355-4.83398-4.88281-53.0762 58.3984c-1.75781 2.00195-3.41797 2.49023-5.76172 0.146484l-5.85938-5.81055c-2.34375-2.29492-1.80664-4.00391 0.195312-5.81055l57.373-54.0039-4.88281-4.83398-57.959 54.4434c-4.93164 4.58984-5.32227 9.47266-1.02539 13.8184Zm32.0801-90.9668c-2.09961 2.05078-2.24609 4.93164-1.07422 6.88477 1.17188 1.80664 3.4668 2.97852 6.68945 2.14844 7.32422-1.70898 14.9414-2.00195 22.0703 2.68555l-2.92969 7.27539c-1.70898 4.15039-0.830078 7.08008 1.85547 9.81445l11.4746 11.5723c2.44141 2.44141 4.49219 2.53906 7.32422 2.05078l5.32227-0.976562 3.32031 3.36914-0.195312 2.7832c-0.195312 2.49023 0.439453 4.39453 2.88086 6.78711l3.80859 3.71094c2.39258 2.39258 5.46875 2.53906 7.8125 0.195312l14.5508-14.5996c2.34375-2.34375 2.24609-5.32227-0.146484-7.71484l-3.85742-3.80859c-2.39258-2.39258-4.24805-3.17383-6.64062-2.97852l-2.88086 0.244141-3.22266-3.17383 1.2207-5.61523c0.634766-2.83203-0.146484-5.0293-3.07617-7.95898l-10.9863-10.9375c-16.6992-16.6016-38.8672-16.2109-53.3203-1.75781Zm7.4707 1.85547c12.1582-8.88672 28.6133-7.37305 39.7461 3.75977l12.1582 12.0605c1.17188 1.17188 1.36719 2.09961 1.02539 3.80859l-1.61133 7.42188 7.51953 7.42188 4.93164-0.292969c1.26953-0.0488281 1.66016 0.0488281 2.63672 1.02539l2.88086 2.88086-12.207 12.207-2.88086-2.88086c-0.976562-0.976562-1.12305-1.36719-1.07422-2.68555l0.341797-4.88281-7.4707-7.42188-7.61719 1.26953c-1.61133 0.341797-2.34375 0.195312-3.56445-0.976562l-10.0098-10.0098c-1.26953-1.17188-1.41602-2.00195-0.634766-3.85742l4.39453-10.4492c-7.8125-7.27539-17.9688-10.4004-28.125-7.42188-0.78125 0.195312-1.07422-0.439453-0.439453-0.976562Z"/>
  </g>
  <text style="stroke:none;fill:black;font-family:sans-serif;font-size:13;font-weight:bold;" transform="matrix(1 0 0 1 1289 1953)">Exporting</text>
  <text style="stroke:none;fill:black;font-family:sans-serif;font-size:13;" transform="matrix(1 0 0 1 1289 1971)">Symbols should be outlined when exporting to ensure the</text>
  <text style="stroke:none;fill:black;font-family:sans-serif;font-size:13;" transform="matrix(1 0 0 1 1289 1989)">design is preserved when submitting to Xcode.</text>
  <text id="template-version" style="stroke:none;fill:black;font-family:sans-serif;font-size:13;text-anchor:end;" transform="matrix(1 0 0 1 3036 1933)">Template v.5.0</text>
  <text style="stroke:none;fill:black;font-family:sans-serif;font-size:13;text-anchor:end;" transform="matrix(1 0 0 1 3036 1951)">Requires Xcode 15 or greater</text>
  <text id="descriptive-name" style="stroke:none;fill:black;font-family:sans-serif;font-size:13;text-anchor:end;" transform="matrix(1 0 0 1 3036 1969)">Generated from bird.life</text>
  <text style="stroke:none;fill:black;font-family:sans-serif;font-size:13;text-anchor:end;" transform="matrix(1 0 0 1 3036 1987)">Typeset at 100.0 points</text>
  <text style="stroke:none;fill:black;font-family:sans-serif;font-size:13;" transform="matrix(1 0 0 1 263 726)">Small</text>
  <text style="stroke:none;fill:black;font-family:sans-serif;font-size:13;" transform="matrix(1 0 0 1 263 1156)">Medium</text>
  <text style="stroke:none;fill:black;font-family:sans-serif;font-size:13;" transform="matrix(1 0 0 1 263 1586)">Large</text>
 </g>
 <g id="Guides">
  <g id="H-reference" style="fill:#27AAE1;stroke:none;" transform="matrix(1 0 0 1 339 696)">
   <path d="M0.993654 0L3.63775 0L29.3281-67.1323L30.0303-67.1323L30.0303-70.459L28.1226-70.459ZM11.6885-24.4799L46.9815-24.4799L46.2315-26.7285L12.4385-26.7285ZM55.1196 0L57.7637 0L30.6382-70.459L29.4326-70.459L29.4326-67.1323Z"/>
  </g>
  <line id="Baseline-S" style="fill:none;stroke:#27AAE1;opacity:1;stroke-width:0.5;" x1="263" x2="3036" y1="696" y2="696"/>
  <line id="Capline-S" style="fill:none;stroke:#27AAE1;opacity:1;stroke-width:0.5;" x1="263" x2="3036" y1="625.541" y2="625.541"/>
  <g id="H-reference" style="fill:#27AAE1;stroke:none;" transform="matrix(1 0 0 1 339 1126)">
   <path d="M0.993654 0L3.63775 0L29.3281-67.1323L30.0303-67.1323L30.0303-70.459L28.1226-70.459ZM11.6885-24.4799L46.9815-24.4799L46.2315-26.7285L12.4385-26.7285ZM55.1196 0L57.7637 0L30.6382-70.459L29.4326-70.459L29.4326-67.1323Z"/>
  </g>
  <line id="Baseline-M" style="fill:none;stroke:#27AAE1;opacity:1;stroke-width:0.5;" x1="263" x2="3036" y1="1126" y2="1126"/>
  <line id="Capline-M" style="fill:none;stroke:#27AAE1;opacity:1;stroke-width:0.5;" x1="263" x2="3036" y1="1055.54" y2="1055.54"/>
  <g id="H-reference" style="fill:#27AAE1;stroke:none;" transform="matrix(1 0 0 1 339 1556)">
   <path d="M0.993654 0L3.63775 0L29.3281-67.1323L30.0303-67.1323L30.0303-70.459L28.1226-70.459ZM11.6885-24.4799L46.9815-24.4799L46.2315-26.7285L12.4385-26.7285ZM55.1196 0L57.7637 0L30.6382-70.459L29.4326-70.459L29.4326-67.1323Z"/>
  </g>
  <line id="Baseline-L" style="fill:none;stroke:#27AAE1;opacity:1;stroke-width:0.5;" x1="263" x2="3036" y1="1556" y2="1556"/>
  <line id="Capline-L" style="fill:none;stroke:#27AAE1;opacity:1;stroke-width:0.5;" x1="263" x2="3036" y1="1485.54" y2="1485.54"/>
  <line id="left-margin-Ultralight-S" style="fill:none;stroke:#00AEEF;stroke-width:0.5;opacity:1.0;" x1="517.811" x2="517.811" y1="600.785" y2="720.121"/>
  <line id="right-margin-Ultralight-S" style="fill:none;stroke:#00AEEF;stroke-width:0.5;opacity:1.0;" x1="601.611" x2="601.611" y1="600.785" y2="720.121"/>
  <line id="left-margin-Regular-S" style="fill:none;stroke:#00AEEF;stroke-width:0.5;opacity:1.0;" x1="1405.69" x2="1405.69" y1="600.785" y2="720.121"/>
  <line id="right-margin-Regular-S" style="fill:none;stroke:#00AEEF;stroke-width:0.5;opacity:1.0;" x1="1493.99" x2="1493.99" y1="600.785" y2="720.121"/>
  <line id="left-margin-Black-S" style="fill:none;stroke:#00AEEF;stroke-width:0.5;opacity:1.0;" x1="2886" x2="2886" y1="600.785" y2="720.121"/>
  <line id="right-margin-Black-S" style="fill:none;stroke:#00AEEF;stroke-width:0.5;opacity:1.0;" x1="2980.8" x2="2980.8" y1="600.785" y2="720.121"/>
  <line id="left-margin-Regular-M" style="fill:none;stroke:#00AEEF;stroke-width:0.5;opacity:1.0;" x1="1394.03" x2="1394.03" y1="1030.79" y2="1150.12"/>
  <line id="right-margin-Regular-M" style="fill:none;stroke:#00AEEF;stroke-width:0.5;opacity:1.0;" x1="1505.66" x2="1505.66" y1="1030.79" y2="1150.12"/>
 </g>
 <g id="Symbols">
  <g id="Black-L" transform="matrix(1 0 0 1 2856.86 1556)">
   <path class="SFSymbolsPreviewWireframe" d="M121.172-60.38C118.866-62.6858 114.42-66.968 108.326-68.1209C114.914-74.5442 122.655-82.6145 122.325-83.438C121.831-84.5909 110.631-84.4262 101.573-81.1322C105.196-91.3436 105.032-106.496 102.561-107.649C99.5992-108.972 64.1861-90.6901 67.4801-70.7588C51.0101-70.2647 39.1517-68.453 32.0696-60.218C23.1758-49.9164 26.6345 14.4813 37.5047 24.3182C42.281 28.7651 111.126 28.6004 115.902 24.3182C126.278 14.7232 129.901-51.6509 121.172-60.38ZM90.8675-15.0875C89.8793-14.7581 89.2205-14.4287 88.397-14.264C86.5853-13.7699 85.4324-13.4405 84.4442-13.2758C82.7972-12.9464 81.3149-12.7817 79.9973-11.1347C79.9973-11.1347 77.3621-8.99362 76.5386-8.17012C75.8798-8.99362 73.9034-10.97 73.9034-10.97C72.4211-13.1111 70.6094-13.2758 68.633-13.6052C67.6448-13.7699 66.3272-13.9346 64.8449-14.264C64.0214-14.4287 63.1979-14.7581 62.3744-15.0875C61.2215-15.5816 61.7156-17.7227 61.7156-18.5462C62.8685-24.4754 69.7859-33.6986 76.5386-33.6986C83.456-33.6986 90.2087-24.4754 91.3616-18.5462C91.3616-18.2168 91.5263-17.7227 91.5263-17.0639C91.5263-16.0757 91.3616-15.4169 90.8675-15.0875ZM43.7633-3.55852C38.1635-3.88792 38.4929-47.6981 43.7633-47.6981C49.5278-47.6981 49.5278-3.22912 43.7633-3.55852ZM76.5412 5.33528C73.0825 5.49998 67.318-1.58212 64.3534-8.00542C66.3298-7.34662 67.8121-7.18192 68.8003-7.01722C70.2826-6.85252 70.4473-6.85252 70.7767-6.35842C70.7767-6.35842 75.3883-1.41742 76.5412-1.41742C77.5294-1.41742 82.7998-6.19372 82.7998-6.19372C83.1292-6.52312 83.2939-6.68782 84.6115-6.85252C85.5997-7.01722 86.9173-7.34662 88.729-7.84072C85.7618-1.41742 79.9973 5.49998 76.5412 5.33528ZM109.314-3.55852C103.714-3.88792 104.043-47.6981 109.314-47.6981C114.914-47.6981 115.078-3.22912 109.314-3.55852Z"/>
  </g>
  <g id="Heavy-L" transform="matrix(1 0 0 1 2561.28 1556)">
   <path class="SFSymbolsPreviewWireframe" d="M120.093-60.38C117.787-62.6858 113.34-66.968 107.247-68.1209C113.835-74.5442 121.575-82.6145 121.246-83.438C120.752-84.5909 109.552-84.4262 100.494-81.1322C104.117-91.3436 103.953-106.496 101.482-107.649C98.5298-108.991 63.107-90.7095 66.401-70.7685C49.931-70.2744 38.0726-68.4627 30.9905-60.2277C22.0967-49.8697 25.5554 14.528 36.4256 24.3367C41.2019 28.7836 110.046 28.6189 114.823 24.3367C125.199 14.7232 128.822-51.6509 120.093-60.38ZM89.7884-15.0875C88.8002-14.7581 88.1414-14.4287 87.3179-14.264C85.5062-13.7699 84.3533-13.4405 83.3651-13.2758C81.7181-12.9464 80.2358-12.7817 78.9182-11.1347C78.9182-11.1347 76.283-8.99362 75.4595-8.17012C74.8007-8.99362 72.8243-10.97 72.8243-10.97C71.342-13.1111 69.5303-13.2758 67.5539-13.6052C66.5657-13.7699 65.2481-13.9346 63.7658-14.264C62.9423-14.4287 62.1188-14.7581 61.2953-15.0875C60.1424-15.5816 60.6365-17.7227 60.6365-18.5462C61.7894-24.4754 68.7068-33.6986 75.4595-33.6986C82.3769-33.6986 89.1296-24.4754 90.2825-18.5462C90.2825-18.2168 90.4472-17.7227 90.4472-17.0639C90.4472-16.0757 90.2825-15.4169 89.7884-15.0875ZM42.6842-3.55852C37.0844-3.88792 37.4138-47.6981 42.6842-47.6981C48.4487-47.6981 48.4487-3.22912 42.6842-3.55852ZM75.4718 5.33528C72.0131 5.49998 66.2486-1.58212 63.284-8.00542C65.2604-7.34662 66.7427-7.18192 67.7309-7.01722C69.2132-6.85252 69.3779-6.85252 69.7073-6.35842C69.7073-6.35842 74.3189-1.41742 75.4718-1.41742C76.46-1.41742 81.7304-6.19372 81.7304-6.19372C82.0598-6.52312 82.2245-6.68782 83.5421-6.85252C84.5303-7.01722 85.8479-7.34662 87.6596-7.84072C84.6827-1.41742 78.9182 5.49998 75.4718 5.33528ZM108.235-3.55852C102.635-3.88792 102.964-47.6981 108.235-47.6981C113.835-47.6981 113.999-3.22912 108.235-3.55852Z"/>
  </g>
  <g id="Bold-L" transform="matrix(1 0 0 1 2265.97 1556)">
   <path class="SFSymbolsPreviewWireframe" d="M118.79-60.38C116.484-62.6858 112.037-66.968 105.943-68.1209C112.531-74.5442 120.272-82.6145 119.943-83.438C119.449-84.5909 108.249-84.4262 99.1905-81.1322C102.814-91.3436 102.649-106.496 100.179-107.649C97.2432-109.025 61.8036-90.7431 65.0976-70.7853C48.6276-70.2912 36.7692-68.4795 29.6871-60.2445C20.7933-49.8233 24.252 14.5744 35.1222 24.3515C39.8985 28.7984 108.743 28.6337 113.519 24.3515C123.895 14.7232 127.519-51.6509 118.79-60.38ZM88.485-15.0875C87.4968-14.7581 86.838-14.4287 86.0145-14.264C84.2028-13.7699 83.0499-13.4405 82.0617-13.2758C80.4147-12.9464 78.9324-12.7817 77.6148-11.1347C77.6148-11.1347 74.9796-8.99362 74.1561-8.17012C73.4973-8.99362 71.5209-10.97 71.5209-10.97C70.0386-13.1111 68.2269-13.2758 66.2505-13.6052C65.2623-13.7699 63.9447-13.9346 62.4624-14.264C61.6389-14.4287 60.8154-14.7581 59.9919-15.0875C58.839-15.5816 59.3331-17.7227 59.3331-18.5462C60.486-24.4754 67.4034-33.6986 74.1561-33.6986C81.0735-33.6986 87.8262-24.4754 88.9791-18.5462C88.9791-18.2168 89.1438-17.7227 89.1438-17.0639C89.1438-16.0757 88.9791-15.4169 88.485-15.0875ZM41.3808-3.55852C35.781-3.88792 36.1104-47.6981 41.3808-47.6981C47.1453-47.6981 47.1453-3.22912 41.3808-3.55852ZM74.1852 5.33528C70.7265 5.49998 64.962-1.58212 61.9974-8.00542C63.9738-7.34662 65.4561-7.18192 66.4443-7.01722C67.9266-6.85252 68.0913-6.85252 68.4207-6.35842C68.4207-6.35842 73.0323-1.41742 74.1852-1.41742C75.1734-1.41742 80.4438-6.19372 80.4438-6.19372C80.7732-6.52312 80.9379-6.68782 82.2555-6.85252C83.2437-7.01722 84.5613-7.34662 86.373-7.84072C83.3793-1.41742 77.6148 5.49998 74.1852 5.33528ZM106.931-3.55852C101.332-3.88792 101.661-47.6981 106.931-47.6981C112.531-47.6981 112.696-3.22912 106.931-3.55852Z"/>
  </g>
  <g id="Semibold-L" transform="matrix(1 0 0 1 1970.23 1556)">
   <path class="SFSymbolsPreviewWireframe" d="M117.891-60.38C115.585-62.6858 111.139-66.968 105.045-68.1209C111.633-74.5442 119.374-82.6145 119.044-83.438C118.55-84.5909 107.35-84.4262 98.2919-81.1322C101.915-91.3436 101.751-106.496 99.2801-107.649C96.3562-109.048 60.905-90.7662 64.199-70.7968C47.729-70.3027 35.8706-68.491 28.7885-60.256C19.8947-49.7913 23.3534 14.6064 34.2236 24.3617C38.9999 28.8086 107.845 28.6439 112.621 24.3617C122.997 14.7232 126.62-51.6509 117.891-60.38ZM87.5864-15.0875C86.5982-14.7581 85.9394-14.4287 85.1159-14.264C83.3042-13.7699 82.1513-13.4405 81.1631-13.2758C79.5161-12.9464 78.0338-12.7817 76.7162-11.1347C76.7162-11.1347 74.081-8.99362 73.2575-8.17012C72.5987-8.99362 70.6223-10.97 70.6223-10.97C69.14-13.1111 67.3283-13.2758 65.3519-13.6052C64.3637-13.7699 63.0461-13.9346 61.5638-14.264C60.7403-14.4287 59.9168-14.7581 59.0933-15.0875C57.9404-15.5816 58.4345-17.7227 58.4345-18.5462C59.5874-24.4754 66.5048-33.6986 73.2575-33.6986C80.1749-33.6986 86.9276-24.4754 88.0805-18.5462C88.0805-18.2168 88.2452-17.7227 88.2452-17.0639C88.2452-16.0757 88.0805-15.4169 87.5864-15.0875ZM40.4822-3.55852C34.8824-3.88792 35.2118-47.6981 40.4822-47.6981C46.2467-47.6981 46.2467-3.22912 40.4822-3.55852ZM73.2982 5.33528C69.8395 5.49998 64.075-1.58212 61.1104-8.00542C63.0868-7.34662 64.5691-7.18192 65.5573-7.01722C67.0396-6.85252 67.2043-6.85252 67.5337-6.35842C67.5337-6.35842 72.1453-1.41742 73.2982-1.41742C74.2864-1.41742 79.5568-6.19372 79.5568-6.19372C79.8862-6.52312 80.0509-6.68782 81.3685-6.85252C82.3567-7.01722 83.6743-7.34662 85.486-7.84072C82.4807-1.41742 76.7162 5.49998 73.2982 5.33528ZM106.033-3.55852C100.433-3.88792 100.762-47.6981 106.033-47.6981C111.633-47.6981 111.797-3.22912 106.033-3.55852Z"/>
  </g>
  <g id="Medium-L" transform="matrix(1 0 0 1 1674.25 1556)">
   <path class="SFSymbolsPreviewWireframe" d="M117.21-60.38C114.904-62.6858 110.457-66.968 104.363-68.1209C110.951-74.5442 118.692-82.6145 118.363-83.438C117.869-84.5909 106.669-84.4262 97.6106-81.1322C101.234-91.3436 101.069-106.496 98.5988-107.649C95.6837-109.065 60.2237-90.7838 63.5177-70.8056C47.0477-70.3115 35.1893-68.4998 28.1072-60.2648C19.2134-49.767 22.6721 14.6307 33.5423 24.3695C38.3186 28.8164 107.163 28.6517 111.94 24.3695C122.316 14.7232 125.939-51.6509 117.21-60.38ZM86.9051-15.0875C85.9169-14.7581 85.2581-14.4287 84.4346-14.264C82.6229-13.7699 81.47-13.4405 80.4818-13.2758C78.8348-12.9464 77.3525-12.7817 76.0349-11.1347C76.0349-11.1347 73.3997-8.99362 72.5762-8.17012C71.9174-8.99362 69.941-10.97 69.941-10.97C68.4587-13.1111 66.647-13.2758 64.6706-13.6052C63.6824-13.7699 62.3648-13.9346 60.8825-14.264C60.059-14.4287 59.2355-14.7581 58.412-15.0875C57.2591-15.5816 57.7532-17.7227 57.7532-18.5462C58.9061-24.4754 65.8235-33.6986 72.5762-33.6986C79.4936-33.6986 86.2463-24.4754 87.3992-18.5462C87.3992-18.2168 87.5639-17.7227 87.5639-17.0639C87.5639-16.0757 87.3992-15.4169 86.9051-15.0875ZM39.8009-3.55852C34.2011-3.88792 34.5305-47.6981 39.8009-47.6981C45.5654-47.6981 45.5654-3.22912 39.8009-3.55852ZM72.6257 5.33528C69.167 5.49998 63.4025-1.58212 60.4379-8.00542C62.4143-7.34662 63.8966-7.18192 64.8848-7.01722C66.3671-6.85252 66.5318-6.85252 66.8612-6.35842C66.8612-6.35842 71.4728-1.41742 72.6257-1.41742C73.6139-1.41742 78.8843-6.19372 78.8843-6.19372C79.2137-6.52312 79.3784-6.68782 80.696-6.85252C81.6842-7.01722 83.0018-7.34662 84.8135-7.84072C81.7994-1.41742 76.0349 5.49998 72.6257 5.33528ZM105.352-3.55852C99.7517-3.88792 100.081-47.6981 105.352-47.6981C110.951-47.6981 111.116-3.22912 105.352-3.55852Z"/>
  </g>
  <g id="Regular-L" transform="matrix(1 0 0 1 1378.5 1556)">
   <path class="SFSymbolsPreviewWireframe" d="M116.321-60.38C114.015-62.6858 109.569-66.968 103.475-68.1209C110.063-74.5442 117.804-82.6145 117.474-83.438C116.98-84.5909 105.78-84.4262 96.7219-81.1322C100.345-91.3436 100.181-106.496 97.7101-107.649C94.8064-109.088 59.335-90.8066 62.629-70.817C46.159-70.3229 34.3006-68.5112 27.2185-60.2762C18.3247-49.7354 21.7834 14.6623 32.6536 24.3796C37.4299 28.8265 106.275 28.6618 111.051 24.3796C121.427 14.7232 125.05-51.6509 116.321-60.38ZM86.0164-15.0875C85.0282-14.7581 84.3694-14.4287 83.5459-14.264C81.7342-13.7699 80.5813-13.4405 79.5931-13.2758C77.9461-12.9464 76.4638-12.7817 75.1462-11.1347C75.1462-11.1347 72.511-8.99362 71.6875-8.17012C71.0287-8.99362 69.0523-10.97 69.0523-10.97C67.57-13.1111 65.7583-13.2758 63.7819-13.6052C62.7937-13.7699 61.4761-13.9346 59.9938-14.264C59.1703-14.4287 58.3468-14.7581 57.5233-15.0875C56.3704-15.5816 56.8645-17.7227 56.8645-18.5462C58.0174-24.4754 64.9348-33.6986 71.6875-33.6986C78.6049-33.6986 85.3576-24.4754 86.5105-18.5462C86.5105-18.2168 86.6752-17.7227 86.6752-17.0639C86.6752-16.0757 86.5105-15.4169 86.0164-15.0875ZM38.9122-3.55852C33.3124-3.88792 33.6418-47.6981 38.9122-47.6981C44.6767-47.6981 44.6767-3.22912 38.9122-3.55852ZM71.7484 5.33528C68.2897 5.49998 62.5252-1.58212 59.5606-8.00542C61.537-7.34662 63.0193-7.18192 64.0075-7.01722C65.4898-6.85252 65.6545-6.85252 65.9839-6.35842C65.9839-6.35842 70.5955-1.41742 71.7484-1.41742C72.7366-1.41742 78.007-6.19372 78.007-6.19372C78.3364-6.52312 78.5011-6.68782 79.8187-6.85252C80.8069-7.01722 82.1245-7.34662 83.9362-7.84072C80.9107-1.41742 75.1462 5.49998 71.7484 5.33528ZM104.463-3.55852C98.863-3.88792 99.1924-47.6981 104.463-47.6981C110.063-47.6981 110.227-3.22912 104.463-3.55852Z"/>
  </g>
  <g id="Light-L" transform="matrix(1 0 0 1 1082.73 1556)">
   <path class="SFSymbolsPreviewWireframe" d="M115.635-60.38C113.329-62.6858 108.882-66.968 102.788-68.1209C109.376-74.5442 117.117-82.6145 116.788-83.438C116.294-84.5909 105.094-84.4262 96.0356-81.1322C99.659-91.3436 99.4943-106.496 97.0238-107.649C94.1621-109.172 58.6487-90.8907 61.9427-70.8591C45.4727-70.365 33.6143-68.5533 26.5322-60.3183C17.6384-49.7775 21.0971 14.6202 31.9673 24.3375C36.7436 28.7844 105.588 28.6197 110.365 24.3375C120.741 14.7232 124.364-51.6509 115.635-60.38ZM85.3301-15.0875C84.3419-14.7581 83.6831-14.4287 82.8596-14.264C81.0479-13.7699 79.895-13.4405 78.9068-13.2758C77.2598-12.9464 75.7775-12.7817 74.4599-11.1347C74.4599-11.1347 71.8247-8.99362 71.0012-8.17012C70.3424-8.99362 68.366-10.97 68.366-10.97C66.8837-13.1111 65.072-13.2758 63.0956-13.6052C62.1074-13.7699 60.7898-13.9346 59.3075-14.264C58.484-14.4287 57.6605-14.7581 56.837-15.0875C55.6841-15.5816 56.1782-17.7227 56.1782-18.5462C57.3311-24.4754 64.2485-33.6986 71.0012-33.6986C77.9186-33.6986 84.6713-24.4754 85.8242-18.5462C85.8242-18.2168 85.9889-17.7227 85.9889-17.0639C85.9889-16.0757 85.8242-15.4169 85.3301-15.0875ZM38.2259-3.55852C32.6261-3.88792 32.9555-47.6981 38.2259-47.6981C43.9904-47.6981 43.9904-3.22912 38.2259-3.55852ZM71.1041 5.33528C67.6454 5.49998 61.8809-1.58212 58.9163-8.00542C60.8927-7.34662 62.375-7.18192 63.3632-7.01722C64.8455-6.85252 65.0102-6.85252 65.3396-6.35842C65.3396-6.35842 69.9512-1.41742 71.1041-1.41742C72.0923-1.41742 77.3627-6.19372 77.3627-6.19372C77.6921-6.52312 77.8568-6.68782 79.1744-6.85252C80.1626-7.01722 81.4802-7.34662 83.2919-7.84072C80.2244-1.41742 74.4599 5.49998 71.1041 5.33528ZM103.777-3.55852C98.1767-3.88792 98.5061-47.6981 103.777-47.6981C109.376-47.6981 109.541-3.22912 103.777-3.55852Z"/>
  </g>
  <g id="Thin-L" transform="matrix(1 0 0 1 787.274 1556)">
   <path class="SFSymbolsPreviewWireframe" d="M114.727-60.38C112.421-62.6858 107.974-66.968 101.881-68.1209C108.469-74.5442 116.209-82.6145 115.88-83.438C115.386-84.5909 104.186-84.4262 95.1279-81.1322C98.7513-91.3436 98.5866-106.496 96.1161-107.649C93.31-109.284 57.741-91.0019 61.035-70.9146C44.565-70.4205 32.7066-68.6088 25.6245-60.3738C16.7307-49.833 20.1894 14.5647 31.0596 24.282C35.8359 28.7289 104.68 28.5642 109.457 24.282C119.833 14.7232 123.456-51.6509 114.727-60.38ZM84.4224-15.0875C83.4342-14.7581 82.7754-14.4287 81.9519-14.264C80.1402-13.7699 78.9873-13.4405 77.9991-13.2758C76.3521-12.9464 74.8698-12.7817 73.5522-11.1347C73.5522-11.1347 70.917-8.99362 70.0935-8.17012C69.4347-8.99362 67.4583-10.97 67.4583-10.97C65.976-13.1111 64.1643-13.2758 62.1879-13.6052C61.1997-13.7699 59.8821-13.9346 58.3998-14.264C57.5763-14.4287 56.7528-14.7581 55.9293-15.0875C54.7764-15.5816 55.2705-17.7227 55.2705-18.5462C56.4234-24.4754 63.3408-33.6986 70.0935-33.6986C77.0109-33.6986 83.7636-24.4754 84.9165-18.5462C84.9165-18.2168 85.0812-17.7227 85.0812-17.0639C85.0812-16.0757 84.9165-15.4169 84.4224-15.0875ZM37.3182-3.55852C31.7184-3.88792 32.0478-47.6981 37.3182-47.6981C43.0827-47.6981 43.0827-3.22912 37.3182-3.55852ZM70.252 5.33528C66.7933 5.49998 61.0288-1.58212 58.0642-8.00542C60.0406-7.34662 61.5229-7.18192 62.5111-7.01722C63.9934-6.85252 64.1581-6.85252 64.4875-6.35842C64.4875-6.35842 69.0991-1.41742 70.252-1.41742C71.2402-1.41742 76.5106-6.19372 76.5106-6.19372C76.84-6.52312 77.0047-6.68782 78.3223-6.85252C79.3105-7.01722 80.6281-7.34662 82.4398-7.84072C79.3167-1.41742 73.5522 5.49998 70.252 5.33528ZM102.869-3.55852C97.269-3.88792 97.5984-47.6981 102.869-47.6981C108.469-47.6981 108.633-3.22912 102.869-3.55852Z"/>
  </g>
  <g id="Ultralight-L" transform="matrix(1 0 0 1 491.203 1556)">
   <path class="SFSymbolsPreviewWireframe" d="M114.262-60.38C111.956-62.6858 107.51-66.968 101.416-68.1209C108.004-74.5442 115.745-82.6145 115.415-83.438C114.921-84.5909 103.721-84.4262 94.6629-81.1322C98.2863-91.3436 98.1216-106.496 95.6511-107.649C92.8735-109.341 57.276-91.0588 60.57-70.9431C44.1-70.449 32.2416-68.6373 25.1595-60.4023C16.2657-49.8615 19.7244 14.5362 30.5946 24.2535C35.3709 28.7004 104.216 28.5357 108.992 24.2535C119.368 14.7232 122.991-51.6509 114.262-60.38ZM83.9574-15.0875C82.9692-14.7581 82.3104-14.4287 81.4869-14.264C79.6752-13.7699 78.5223-13.4405 77.5341-13.2758C75.8871-12.9464 74.4048-12.7817 73.0872-11.1347C73.0872-11.1347 70.452-8.99362 69.6285-8.17012C68.9697-8.99362 66.9933-10.97 66.9933-10.97C65.511-13.1111 63.6993-13.2758 61.7229-13.6052C60.7347-13.7699 59.4171-13.9346 57.9348-14.264C57.1113-14.4287 56.2878-14.7581 55.4643-15.0875C54.3114-15.5816 54.8055-17.7227 54.8055-18.5462C55.9584-24.4754 62.8758-33.6986 69.6285-33.6986C76.5459-33.6986 83.2986-24.4754 84.4515-18.5462C84.4515-18.2168 84.6162-17.7227 84.6162-17.0639C84.6162-16.0757 84.4515-15.4169 83.9574-15.0875ZM36.8532-3.55852C31.2534-3.88792 31.5828-47.6981 36.8532-47.6981C42.6177-47.6981 42.6177-3.22912 36.8532-3.55852ZM69.8155 5.33528C66.3568 5.49998 60.5923-1.58212 57.6277-8.00542C59.6041-7.34662 61.0864-7.18192 62.0746-7.01722C63.5569-6.85252 63.7216-6.85252 64.051-6.35842C64.051-6.35842 68.6626-1.41742 69.8155-1.41742C70.8037-1.41742 76.0741-6.19372 76.0741-6.19372C76.4035-6.52312 76.5682-6.68782 77.8858-6.85252C78.874-7.01722 80.1916-7.34662 82.0033-7.84072C78.8517-1.41742 73.0872 5.49998 69.8155 5.33528ZM102.404-3.55852C96.804-3.88792 97.1334-47.6981 102.404-47.6981C108.004-47.6981 108.168-3.22912 102.404-3.55852Z"/>
  </g>
  <g id="Black-M" transform="matrix(1 0 0 1 2873.25 1126)">
   <path class="SFSymbolsPreviewWireframe" d="M94.7117-54.7147C92.9253-56.5011 89.4801-59.8187 84.7589-60.7119C89.8629-65.6883 95.8601-71.9407 95.6049-72.5787C95.2221-73.4719 86.5453-73.3443 79.5273-70.7923C82.3345-78.7035 82.2069-90.4427 80.2929-91.3359C77.9955-92.3554 50.5621-78.1918 53.1141-62.7528C40.3541-62.37 31.1669-60.9664 25.6801-54.5864C18.7897-46.6539 21.4693 3.2377 29.8909 10.883C33.5913 14.3282 86.9281 14.2006 90.6285 10.883C98.6673 3.47094 101.474-47.9519 94.7117-54.7147ZM71.2333-19.6247C70.4677-19.3695 69.9573-19.1143 69.3193-18.9867C67.9157-18.6039 67.0225-18.3487 66.2569-18.2211C64.9809-17.9659 63.8325-17.8383 62.8117-16.5623C62.8117-16.5623 60.7701-14.9035 60.1321-14.2655C59.6217-14.9035 58.0905-16.4347 58.0905-16.4347C56.9421-18.0935 55.5385-18.2211 54.0073-18.4763C53.2417-18.6039 52.2209-18.7315 51.0725-18.9867C50.4345-19.1143 49.7965-19.3695 49.1585-19.6247C48.2653-20.0075 48.6481-21.6663 48.6481-22.3043C49.5413-26.8979 54.9005-34.0435 60.1321-34.0435C65.4913-34.0435 70.7229-26.8979 71.6161-22.3043C71.6161-22.0491 71.7437-21.6663 71.7437-21.1559C71.7437-20.3903 71.6161-19.8799 71.2333-19.6247ZM34.7397-10.6927C30.4013-10.9479 30.6565-44.8895 34.7397-44.8895C39.2057-44.8895 39.2057-10.4375 34.7397-10.6927ZM60.1315-3.80226C57.4519-3.67466 52.9859-9.16146 50.6891-14.1379C52.2203-13.6275 53.3687-13.4999 54.1343-13.3723C55.2827-13.2447 55.4103-13.2447 55.6655-12.8619C55.6655-12.8619 59.2383-9.03386 60.1315-9.03386C60.8971-9.03386 64.9803-12.7343 64.9803-12.7343C65.2355-12.9895 65.3631-13.1171 66.3839-13.2447C67.1495-13.3723 68.1703-13.6275 69.5739-14.0103C67.2777-9.03386 62.8117-3.67466 60.1315-3.80226ZM85.5245-10.6927C81.1861-10.9479 81.4413-44.8895 85.5245-44.8895C89.8629-44.8895 89.9905-10.4375 85.5245-10.6927Z"/>
  </g>
  <g id="Heavy-M" transform="matrix(1 0 0 1 2577.56 1126)">
   <path class="SFSymbolsPreviewWireframe" d="M93.7201-54.7147C91.9337-56.5011 88.4885-59.8187 83.7673-60.7119C88.8713-65.6883 94.8685-71.9407 94.6133-72.5787C94.2305-73.4719 85.5537-73.3443 78.5357-70.7923C81.3429-78.7035 81.2153-90.4427 79.3013-91.3359C77.0095-92.3667 49.5705-78.2031 52.1225-62.7585C39.3625-62.3757 30.1753-60.9721 24.6885-54.5921C17.7981-46.6043 20.4777 3.28726 28.8993 10.905C32.5997 14.3502 85.9365 14.2226 89.6369 10.905C97.6757 3.47094 100.483-47.9519 93.7201-54.7147ZM70.2417-19.6247C69.4761-19.3695 68.9657-19.1143 68.3277-18.9867C66.9241-18.6039 66.0309-18.3487 65.2653-18.2211C63.9893-17.9659 62.8409-17.8383 61.8201-16.5623C61.8201-16.5623 59.7785-14.9035 59.1405-14.2655C58.6301-14.9035 57.0989-16.4347 57.0989-16.4347C55.9505-18.0935 54.5469-18.2211 53.0157-18.4763C52.2501-18.6039 51.2293-18.7315 50.0809-18.9867C49.4429-19.1143 48.8049-19.3695 48.1669-19.6247C47.2737-20.0075 47.6565-21.6663 47.6565-22.3043C48.5497-26.8979 53.9089-34.0435 59.1405-34.0435C64.4997-34.0435 69.7313-26.8979 70.6245-22.3043C70.6245-22.0491 70.7521-21.6663 70.7521-21.1559C70.7521-20.3903 70.6245-19.8799 70.2417-19.6247ZM33.7481-10.6927C29.4097-10.9479 29.6649-44.8895 33.7481-44.8895C38.2141-44.8895 38.2141-10.4375 33.7481-10.6927ZM59.1455-3.80226C56.4659-3.67466 51.9999-9.16146 49.7031-14.1379C51.2343-13.6275 52.3827-13.4999 53.1483-13.3723C54.2967-13.2447 54.4243-13.2447 54.6795-12.8619C54.6795-12.8619 58.2523-9.03386 59.1455-9.03386C59.9111-9.03386 63.9943-12.7343 63.9943-12.7343C64.2495-12.9895 64.3771-13.1171 65.3979-13.2447C66.1635-13.3723 67.1843-13.6275 68.5879-14.0103C66.2861-9.03386 61.8201-3.67466 59.1455-3.80226ZM84.5329-10.6927C80.1945-10.9479 80.4497-44.8895 84.5329-44.8895C88.8713-44.8895 88.9989-10.4375 84.5329-10.6927Z"/>
  </g>
  <g id="Bold-M" transform="matrix(1 0 0 1 2282 1126)">
   <path class="SFSymbolsPreviewWireframe" d="M92.6109-54.7147C90.8245-56.5011 87.3793-59.8187 82.6581-60.7119C87.7621-65.6883 93.7593-71.9407 93.5041-72.5787C93.1213-73.4719 84.4445-73.3443 77.4265-70.7923C80.2337-78.7035 80.1061-90.4427 78.1921-91.3359C75.9066-92.3793 48.4613-78.2157 51.0133-62.7648C38.2533-62.382 29.0661-60.9784 23.5793-54.5984C16.6889-46.5489 19.3685 3.3427 27.7901 10.9296C31.4905 14.3748 84.8273 14.2472 88.5277 10.9296C96.5665 3.47094 99.3737-47.9519 92.6109-54.7147ZM69.1325-19.6247C68.3669-19.3695 67.8565-19.1143 67.2185-18.9867C65.8149-18.6039 64.9217-18.3487 64.1561-18.2211C62.8801-17.9659 61.7317-17.8383 60.7109-16.5623C60.7109-16.5623 58.6693-14.9035 58.0313-14.2655C57.5209-14.9035 55.9897-16.4347 55.9897-16.4347C54.8413-18.0935 53.4377-18.2211 51.9065-18.4763C51.1409-18.6039 50.1201-18.7315 48.9717-18.9867C48.3337-19.1143 47.6957-19.3695 47.0577-19.6247C46.1645-20.0075 46.5473-21.6663 46.5473-22.3043C47.4405-26.8979 52.7997-34.0435 58.0313-34.0435C63.3905-34.0435 68.6221-26.8979 69.5153-22.3043C69.5153-22.0491 69.6429-21.6663 69.6429-21.1559C69.6429-20.3903 69.5153-19.8799 69.1325-19.6247ZM32.6389-10.6927C28.3005-10.9479 28.5557-44.8895 32.6389-44.8895C37.1049-44.8895 37.1049-10.4375 32.6389-10.6927ZM58.0426-3.80226C55.363-3.67466 50.897-9.16146 48.6002-14.1379C50.1314-13.6275 51.2798-13.4999 52.0454-13.3723C53.1938-13.2447 53.3214-13.2447 53.5766-12.8619C53.5766-12.8619 57.1494-9.03386 58.0426-9.03386C58.8082-9.03386 62.8914-12.7343 62.8914-12.7343C63.1466-12.9895 63.2742-13.1171 64.295-13.2447C65.0606-13.3723 66.0814-13.6275 67.485-14.0103C65.1769-9.03386 60.7109-3.67466 58.0426-3.80226ZM83.4237-10.6927C79.0853-10.9479 79.3405-44.8895 83.4237-44.8895C87.7621-44.8895 87.8897-10.4375 83.4237-10.6927Z"/>
  </g>
  <g id="Semibold-M" transform="matrix(1 0 0 1 1986.07 1126)">
   <path class="SFSymbolsPreviewWireframe" d="M91.8462-54.7147C90.0598-56.5011 86.6146-59.8187 81.8934-60.7119C86.9974-65.6883 92.9946-71.9407 92.7394-72.5787C92.3566-73.4719 83.6798-73.3443 76.6618-70.7923C79.469-78.7035 79.3414-90.4427 77.4274-91.3359C75.1462-92.388 47.6966-78.2244 50.2486-62.7691C37.4886-62.3863 28.3014-60.9827 22.8146-54.6027C15.9242-46.5107 18.6038 3.38092 27.0254 10.9465C30.7258 14.3917 84.0626 14.2641 87.763 10.9465C95.8018 3.47094 98.609-47.9519 91.8462-54.7147ZM68.3678-19.6247C67.6022-19.3695 67.0918-19.1143 66.4538-18.9867C65.0502-18.6039 64.157-18.3487 63.3914-18.2211C62.1154-17.9659 60.967-17.8383 59.9462-16.5623C59.9462-16.5623 57.9046-14.9035 57.2666-14.2655C56.7562-14.9035 55.225-16.4347 55.225-16.4347C54.0766-18.0935 52.673-18.2211 51.1418-18.4763C50.3762-18.6039 49.3554-18.7315 48.207-18.9867C47.569-19.1143 46.931-19.3695 46.293-19.6247C45.3998-20.0075 45.7826-21.6663 45.7826-22.3043C46.6758-26.8979 52.035-34.0435 57.2666-34.0435C62.6258-34.0435 67.8574-26.8979 68.7506-22.3043C68.7506-22.0491 68.8782-21.6663 68.8782-21.1559C68.8782-20.3903 68.7506-19.8799 68.3678-19.6247ZM31.8742-10.6927C27.5358-10.9479 27.791-44.8895 31.8742-44.8895C36.3402-44.8895 36.3402-10.4375 31.8742-10.6927ZM57.2822-3.80226C54.6026-3.67466 50.1366-9.16146 47.8398-14.1379C49.371-13.6275 50.5194-13.4999 51.285-13.3723C52.4334-13.2447 52.561-13.2447 52.8162-12.8619C52.8162-12.8619 56.389-9.03386 57.2822-9.03386C58.0478-9.03386 62.131-12.7343 62.131-12.7343C62.3862-12.9895 62.5138-13.1171 63.5346-13.2447C64.3002-13.3723 65.321-13.6275 66.7246-14.0103C64.4122-9.03386 59.9462-3.67466 57.2822-3.80226ZM82.659-10.6927C78.3206-10.9479 78.5758-44.8895 82.659-44.8895C86.9974-44.8895 87.125-10.4375 82.659-10.6927Z"/>
  </g>
  <g id="Medium-M" transform="matrix(1 0 0 1 1689.96 1126)">
   <path class="SFSymbolsPreviewWireframe" d="M91.2663-54.7147C89.4799-56.5011 86.0347-59.8187 81.3135-60.7119C86.4175-65.6883 92.4147-71.9407 92.1595-72.5787C91.7767-73.4719 83.0999-73.3443 76.0819-70.7923C78.8891-78.7035 78.7615-90.4427 76.8475-91.3359C74.5697-92.3945 47.1167-78.2309 49.6687-62.7724C36.9087-62.3896 27.7215-60.986 22.2347-54.606C15.3443-46.4817 18.0239 3.4099 26.4455 10.9594C30.1459 14.4046 83.4827 14.277 87.1831 10.9594C95.2219 3.47094 98.0291-47.9519 91.2663-54.7147ZM67.7879-19.6247C67.0223-19.3695 66.5119-19.1143 65.8739-18.9867C64.4703-18.6039 63.5771-18.3487 62.8115-18.2211C61.5355-17.9659 60.3871-17.8383 59.3663-16.5623C59.3663-16.5623 57.3247-14.9035 56.6867-14.2655C56.1763-14.9035 54.6451-16.4347 54.6451-16.4347C53.4967-18.0935 52.0931-18.2211 50.5619-18.4763C49.7963-18.6039 48.7755-18.7315 47.6271-18.9867C46.9891-19.1143 46.3511-19.3695 45.7131-19.6247C44.8199-20.0075 45.2027-21.6663 45.2027-22.3043C46.0959-26.8979 51.4551-34.0435 56.6867-34.0435C62.0459-34.0435 67.2775-26.8979 68.1707-22.3043C68.1707-22.0491 68.2983-21.6663 68.2983-21.1559C68.2983-20.3903 68.1707-19.8799 67.7879-19.6247ZM31.2943-10.6927C26.9559-10.9479 27.2111-44.8895 31.2943-44.8895C35.7603-44.8895 35.7603-10.4375 31.2943-10.6927ZM56.7057-3.80226C54.0261-3.67466 49.5601-9.16146 47.2633-14.1379C48.7945-13.6275 49.9429-13.4999 50.7085-13.3723C51.8569-13.2447 51.9845-13.2447 52.2397-12.8619C52.2397-12.8619 55.8125-9.03386 56.7057-9.03386C57.4713-9.03386 61.5545-12.7343 61.5545-12.7343C61.8097-12.9895 61.9373-13.1171 62.9581-13.2447C63.7237-13.3723 64.7445-13.6275 66.1481-14.0103C63.8323-9.03386 59.3663-3.67466 56.7057-3.80226ZM82.0791-10.6927C77.7407-10.9479 77.9959-44.8895 82.0791-44.8895C86.4175-44.8895 86.5451-10.4375 82.0791-10.6927Z"/>
  </g>
  <g id="Regular-M" transform="matrix(1 0 0 1 1394.03 1126)">
   <path class="SFSymbolsPreviewWireframe" d="M90.51-54.7147C88.7236-56.5011 85.2784-59.8187 80.5572-60.7119C85.6612-65.6883 91.6584-71.9407 91.4032-72.5787C91.0204-73.4719 82.3436-73.3443 75.3256-70.7923C78.1328-78.7035 78.0052-90.4427 76.0912-91.3359C73.8177-92.4031 46.3604-78.2395 48.9124-62.7767C36.1524-62.3939 26.9652-60.9903 21.4784-54.6103C14.588-46.4439 17.2676 3.4477 25.6892 10.9761C29.3896 14.4213 82.7264 14.2937 86.4268 10.9761C94.4656 3.47094 97.2728-47.9519 90.51-54.7147ZM67.0316-19.6247C66.266-19.3695 65.7556-19.1143 65.1176-18.9867C63.714-18.6039 62.8208-18.3487 62.0552-18.2211C60.7792-17.9659 59.6308-17.8383 58.61-16.5623C58.61-16.5623 56.5684-14.9035 55.9304-14.2655C55.42-14.9035 53.8888-16.4347 53.8888-16.4347C52.7404-18.0935 51.3368-18.2211 49.8056-18.4763C49.04-18.6039 48.0192-18.7315 46.8708-18.9867C46.2328-19.1143 45.5948-19.3695 44.9568-19.6247C44.0636-20.0075 44.4464-21.6663 44.4464-22.3043C45.3396-26.8979 50.6988-34.0435 55.9304-34.0435C61.2896-34.0435 66.5212-26.8979 67.4144-22.3043C67.4144-22.0491 67.542-21.6663 67.542-21.1559C67.542-20.3903 67.4144-19.8799 67.0316-19.6247ZM30.538-10.6927C26.1996-10.9479 26.4548-44.8895 30.538-44.8895C35.004-44.8895 35.004-10.4375 30.538-10.6927ZM55.9537-3.80226C53.2741-3.67466 48.8081-9.16146 46.5113-14.1379C48.0425-13.6275 49.1909-13.4999 49.9565-13.3723C51.1049-13.2447 51.2325-13.2447 51.4877-12.8619C51.4877-12.8619 55.0605-9.03386 55.9537-9.03386C56.7193-9.03386 60.8025-12.7343 60.8025-12.7343C61.0577-12.9895 61.1853-13.1171 62.2061-13.2447C62.9717-13.3723 63.9925-13.6275 65.3961-14.0103C63.076-9.03386 58.61-3.67466 55.9537-3.80226ZM81.3228-10.6927C76.9844-10.9479 77.2396-44.8895 81.3228-44.8895C85.6612-44.8895 85.7888-10.4375 81.3228-10.6927Z"/>
  </g>
  <g id="Light-M" transform="matrix(1 0 0 1 1098.17 1126)">
   <path class="SFSymbolsPreviewWireframe" d="M89.8947-54.7147C88.1083-56.5011 84.6631-59.8187 79.9419-60.7119C85.0459-65.6883 91.0431-71.9407 90.7879-72.5787C90.4051-73.4719 81.7283-73.3443 74.7103-70.7923C77.5175-78.7035 77.3899-90.4427 75.4759-91.3359C73.24-92.4785 45.7451-78.3149 48.2971-62.8144C35.5371-62.4316 26.3499-61.028 20.8631-54.648C13.9727-46.4816 16.6523 3.41002 25.0739 10.9384C28.7743 14.3836 82.1111 14.256 85.8115 10.9384C93.8503 3.47094 96.6575-47.9519 89.8947-54.7147ZM66.4163-19.6247C65.6507-19.3695 65.1403-19.1143 64.5023-18.9867C63.0987-18.6039 62.2055-18.3487 61.4399-18.2211C60.1639-17.9659 59.0155-17.8383 57.9947-16.5623C57.9947-16.5623 55.9531-14.9035 55.3151-14.2655C54.8047-14.9035 53.2735-16.4347 53.2735-16.4347C52.1251-18.0935 50.7215-18.2211 49.1903-18.4763C48.4247-18.6039 47.4039-18.7315 46.2555-18.9867C45.6175-19.1143 44.9795-19.3695 44.3415-19.6247C43.4483-20.0075 43.8311-21.6663 43.8311-22.3043C44.7243-26.8979 50.0835-34.0435 55.3151-34.0435C60.6743-34.0435 65.9059-26.8979 66.7991-22.3043C66.7991-22.0491 66.9267-21.6663 66.9267-21.1559C66.9267-20.3903 66.7991-19.8799 66.4163-19.6247ZM29.9227-10.6927C25.5843-10.9479 25.8395-44.8895 29.9227-44.8895C34.3887-44.8895 34.3887-10.4375 29.9227-10.6927ZM55.376-3.80226C52.6964-3.67466 48.2304-9.16146 45.9336-14.1379C47.4648-13.6275 48.6132-13.4999 49.3788-13.3723C50.5272-13.2447 50.6548-13.2447 50.91-12.8619C50.91-12.8619 54.4828-9.03386 55.376-9.03386C56.1416-9.03386 60.2248-12.7343 60.2248-12.7343C60.48-12.9895 60.6076-13.1171 61.6284-13.2447C62.394-13.3723 63.4148-13.6275 64.8184-14.0103C62.4607-9.03386 57.9947-3.67466 55.376-3.80226ZM80.7075-10.6927C76.3691-10.9479 76.6243-44.8895 80.7075-44.8895C85.0459-44.8895 85.1735-10.4375 80.7075-10.6927Z"/>
  </g>
  <g id="Thin-M" transform="matrix(1 0 0 1 802.579 1126)">
   <path class="SFSymbolsPreviewWireframe" d="M89.0809-54.7147C87.2945-56.5011 83.8493-59.8187 79.1281-60.7119C84.2321-65.6883 90.2293-71.9407 89.9741-72.5787C89.5913-73.4719 80.9145-73.3443 73.8965-70.7923C76.7037-78.7035 76.5761-90.4427 74.6621-91.3359C72.476-92.5782 44.9313-78.4146 47.4833-62.8642C34.7233-62.4814 25.5361-61.0778 20.0493-54.6978C13.1589-46.5314 15.8385 3.36019 24.2601 10.8886C27.9605 14.3338 81.2973 14.2062 84.9977 10.8886C93.0365 3.47094 95.8437-47.9519 89.0809-54.7147ZM65.6025-19.6247C64.8369-19.3695 64.3265-19.1143 63.6885-18.9867C62.2849-18.6039 61.3917-18.3487 60.6261-18.2211C59.3501-17.9659 58.2017-17.8383 57.1809-16.5623C57.1809-16.5623 55.1393-14.9035 54.5013-14.2655C53.9909-14.9035 52.4597-16.4347 52.4597-16.4347C51.3113-18.0935 49.9077-18.2211 48.3765-18.4763C47.6109-18.6039 46.5901-18.7315 45.4417-18.9867C44.8037-19.1143 44.1657-19.3695 43.5277-19.6247C42.6345-20.0075 43.0173-21.6663 43.0173-22.3043C43.9105-26.8979 49.2697-34.0435 54.5013-34.0435C59.8605-34.0435 65.0921-26.8979 65.9853-22.3043C65.9853-22.0491 66.1129-21.6663 66.1129-21.1559C66.1129-20.3903 65.9853-19.8799 65.6025-19.6247ZM29.1089-10.6927C24.7705-10.9479 25.0257-44.8895 29.1089-44.8895C33.5749-44.8895 33.5749-10.4375 29.1089-10.6927ZM54.612-3.80226C51.9324-3.67466 47.4664-9.16146 45.1696-14.1379C46.7008-13.6275 47.8492-13.4999 48.6148-13.3723C49.7632-13.2447 49.8908-13.2447 50.146-12.8619C50.146-12.8619 53.7188-9.03386 54.612-9.03386C55.3776-9.03386 59.4608-12.7343 59.4608-12.7343C59.716-12.9895 59.8436-13.1171 60.8644-13.2447C61.63-13.3723 62.6508-13.6275 64.0544-14.0103C61.6469-9.03386 57.1809-3.67466 54.612-3.80226ZM79.8937-10.6927C75.5553-10.9479 75.8105-44.8895 79.8937-44.8895C84.2321-44.8895 84.3597-10.4375 79.8937-10.6927Z"/>
  </g>
  <g id="Ultralight-M" transform="matrix(1 0 0 1 506.442 1126)">
   <path class="SFSymbolsPreviewWireframe" d="M88.664-54.7147C86.8776-56.5011 83.4324-59.8187 78.7112-60.7119C83.8152-65.6883 89.8124-71.9407 89.5572-72.5787C89.1744-73.4719 80.4976-73.3443 73.4796-70.7923C76.2868-78.7035 76.1592-90.4427 74.2452-91.3359C72.0847-92.6292 44.5144-78.4656 47.0664-62.8897C34.3064-62.5069 25.1192-61.1033 19.6324-54.7233C12.742-46.5569 15.4216 3.33466 23.8432 10.8631C27.5436 14.3083 80.8804 14.1807 84.5808 10.8631C92.6196 3.47094 95.4268-47.9519 88.664-54.7147ZM65.1856-19.6247C64.42-19.3695 63.9096-19.1143 63.2716-18.9867C61.868-18.6039 60.9748-18.3487 60.2092-18.2211C58.9332-17.9659 57.7848-17.8383 56.764-16.5623C56.764-16.5623 54.7224-14.9035 54.0844-14.2655C53.574-14.9035 52.0428-16.4347 52.0428-16.4347C50.8944-18.0935 49.4908-18.2211 47.9596-18.4763C47.194-18.6039 46.1732-18.7315 45.0248-18.9867C44.3868-19.1143 43.7488-19.3695 43.1108-19.6247C42.2176-20.0075 42.6004-21.6663 42.6004-22.3043C43.4936-26.8979 48.8528-34.0435 54.0844-34.0435C59.4436-34.0435 64.6752-26.8979 65.5684-22.3043C65.5684-22.0491 65.696-21.6663 65.696-21.1559C65.696-20.3903 65.5684-19.8799 65.1856-19.6247ZM28.692-10.6927C24.3536-10.9479 24.6088-44.8895 28.692-44.8895C33.158-44.8895 33.158-10.4375 28.692-10.6927ZM54.2207-3.80226C51.5411-3.67466 47.0751-9.16146 44.7783-14.1379C46.3095-13.6275 47.4579-13.4999 48.2235-13.3723C49.3719-13.2447 49.4995-13.2447 49.7547-12.8619C49.7547-12.8619 53.3275-9.03386 54.2207-9.03386C54.9863-9.03386 59.0695-12.7343 59.0695-12.7343C59.3247-12.9895 59.4523-13.1171 60.4731-13.2447C61.2387-13.3723 62.2595-13.6275 63.6631-14.0103C61.23-9.03386 56.764-3.67466 54.2207-3.80226ZM79.4768-10.6927C75.1384-10.9479 75.3936-44.8895 79.4768-44.8895C83.8152-44.8895 83.9428-10.4375 79.4768-10.6927Z"/>
  </g>
  <g id="Black-S" transform="matrix(1 0 0 1 2886 696)">
   <path class="SFSymbolsPreviewWireframe" d="M74.49-50.5C73.09-51.9 70.39-54.5 66.69-55.2C70.69-59.1 75.39-64 75.19-64.5C74.89-65.2 68.09-65.1 62.59-63.1C64.79-69.3 64.69-78.5 63.19-79.2C61.39-80 39.89-68.9 41.89-56.8C31.89-56.5 24.69-55.4 20.39-50.4C14.99-44.2 17.09-5.1 23.69 0.9C26.59 3.6 68.39 3.5 71.29 0.9C77.59-4.9 79.79-45.2 74.49-50.5ZM56.09-23C55.49-22.8 55.09-22.6 54.59-22.5C53.49-22.2 52.79-22 52.19-21.9C51.19-21.7 50.29-21.6 49.49-20.6C49.49-20.6 47.89-19.3 47.39-18.8C46.99-19.3 45.79-20.5 45.79-20.5C44.89-21.8 43.79-21.9 42.59-22.1C41.99-22.2 41.19-22.3 40.29-22.5C39.79-22.6 39.29-22.8 38.79-23C38.09-23.3 38.39-24.6 38.39-25.1C39.09-28.7 43.29-34.3 47.39-34.3C51.59-34.3 55.69-28.7 56.39-25.1C56.39-24.9 56.49-24.6 56.49-24.2C56.49-23.6 56.39-23.2 56.09-23ZM27.49-16C24.09-16.2 24.29-42.8 27.49-42.8C30.99-42.8 30.99-15.8 27.49-16ZM47.39-10.6C45.29-10.5 41.79-14.8 39.99-18.7C41.19-18.3 42.09-18.2 42.69-18.1C43.59-18 43.69-18 43.89-17.7C43.89-17.7 46.69-14.7 47.39-14.7C47.99-14.7 51.19-17.6 51.19-17.6C51.39-17.8 51.49-17.9 52.29-18C52.89-18.1 53.69-18.3 54.79-18.6C52.99-14.7 49.49-10.5 47.39-10.6ZM67.29-16C63.89-16.2 64.09-42.8 67.29-42.8C70.69-42.8 70.79-15.8 67.29-16Z"/>
  </g>
  <g id="Heavy-S" transform="matrix(1 0 0 1 2590.06 696)">
   <path class="SFSymbolsPreviewWireframe" d="M73.7206-50.5C72.3206-51.9 69.6206-54.5 65.9206-55.2C69.9206-59.1 74.6206-64 74.4206-64.5C74.1206-65.2 67.3206-65.1 61.8206-63.1C64.0206-69.3 63.9206-78.5 62.4206-79.2C60.6206-80 39.1206-68.9 41.1206-56.8C31.1206-56.5 23.9206-55.4 19.6206-50.4C14.2206-44.1528 16.3206-5.0528 22.9206 0.923602C25.8206 3.6236 67.6206 3.5236 70.5206 0.923602C76.8206-4.9 79.0206-45.2 73.7206-50.5ZM55.3206-23C54.7206-22.8 54.3206-22.6 53.8206-22.5C52.7206-22.2 52.0206-22 51.4206-21.9C50.4206-21.7 49.5206-21.6 48.7206-20.6C48.7206-20.6 47.1206-19.3 46.6206-18.8C46.2206-19.3 45.0206-20.5 45.0206-20.5C44.1206-21.8 43.0206-21.9 41.8206-22.1C41.2206-22.2 40.4206-22.3 39.5206-22.5C39.0206-22.6 38.5206-22.8 38.0206-23C37.3206-23.3 37.6206-24.6 37.6206-25.1C38.3206-28.7 42.5206-34.3 46.6206-34.3C50.8206-34.3 54.9206-28.7 55.6206-25.1C55.6206-24.9 55.7206-24.6 55.7206-24.2C55.7206-23.6 55.6206-23.2 55.3206-23ZM26.7206-16C23.3206-16.2 23.5206-42.8 26.7206-42.8C30.2206-42.8 30.2206-15.8 26.7206-16ZM46.6206-10.6C44.5206-10.5 41.0206-14.8 39.2206-18.7C40.4206-18.3 41.3206-18.2 41.9206-18.1C42.8206-18 42.9206-18 43.1206-17.7C43.1206-17.7 45.9206-14.7 46.6206-14.7C47.2206-14.7 50.4206-17.6 50.4206-17.6C50.6206-17.8 50.7206-17.9 51.5206-18C52.1206-18.1 52.9206-18.3 54.0206-18.6C52.2206-14.7 48.7206-10.5 46.6206-10.6ZM66.5206-16C63.1206-16.2 63.3206-42.8 66.5206-42.8C69.9206-42.8 70.0206-15.8 66.5206-16Z"/>
  </g>
  <g id="Bold-S" transform="matrix(1 0 0 1 2294.2 696)">
   <path class="SFSymbolsPreviewWireframe" d="M72.86-50.5C71.46-51.9 68.76-54.5 65.06-55.2C69.06-59.1 73.76-64 73.56-64.5C73.26-65.2 66.46-65.1 60.96-63.1C63.16-69.3 63.06-78.5 61.56-79.2C59.76-80 38.26-68.9 40.26-56.8C30.26-56.5 23.06-55.4 18.76-50.4C13.36-44.1 15.46-5 22.06 0.95C24.96 3.65 66.76 3.55 69.66 0.95C75.96-4.9 78.16-45.2 72.86-50.5ZM54.46-23C53.86-22.8 53.46-22.6 52.96-22.5C51.86-22.2 51.16-22 50.56-21.9C49.56-21.7 48.66-21.6 47.86-20.6C47.86-20.6 46.26-19.3 45.76-18.8C45.36-19.3 44.16-20.5 44.16-20.5C43.26-21.8 42.16-21.9 40.96-22.1C40.36-22.2 39.56-22.3 38.66-22.5C38.16-22.6 37.66-22.8 37.16-23C36.46-23.3 36.76-24.6 36.76-25.1C37.46-28.7 41.66-34.3 45.76-34.3C49.96-34.3 54.06-28.7 54.76-25.1C54.76-24.9 54.86-24.6 54.86-24.2C54.86-23.6 54.76-23.2 54.46-23ZM25.86-16C22.46-16.2 22.66-42.8 25.86-42.8C29.36-42.8 29.36-15.8 25.86-16ZM45.76-10.6C43.66-10.5 40.16-14.8 38.36-18.7C39.56-18.3 40.46-18.2 41.06-18.1C41.96-18 42.06-18 42.26-17.7C42.26-17.7 45.06-14.7 45.76-14.7C46.36-14.7 49.56-17.6 49.56-17.6C49.76-17.8 49.86-17.9 50.66-18C51.26-18.1 52.06-18.3 53.16-18.6C51.36-14.7 47.86-10.5 45.76-10.6ZM65.66-16C62.26-16.2 62.46-42.8 65.66-42.8C69.06-42.8 69.16-15.8 65.66-16Z"/>
  </g>
  <g id="Semibold-S" transform="matrix(1 0 0 1 1998.08 696)">
   <path class="SFSymbolsPreviewWireframe" d="M72.2667-50.5C70.8667-51.9 68.1667-54.5 64.4667-55.2C68.4667-59.1 73.1667-64 72.9667-64.5C72.6667-65.2 65.8667-65.1 60.3667-63.1C62.5667-69.3 62.4667-78.5 60.9667-79.2C59.1667-80 37.6667-68.9 39.6667-56.8C29.6667-56.5 22.4667-55.4 18.1667-50.4C12.7667-44.0636 14.8667-4.9636 21.4667 0.9682C24.3667 3.6682 66.1667 3.5682 69.0667 0.9682C75.3667-4.9 77.5667-45.2 72.2667-50.5ZM53.8667-23C53.2667-22.8 52.8667-22.6 52.3667-22.5C51.2667-22.2 50.5667-22 49.9667-21.9C48.9667-21.7 48.0667-21.6 47.2667-20.6C47.2667-20.6 45.6667-19.3 45.1667-18.8C44.7667-19.3 43.5667-20.5 43.5667-20.5C42.6667-21.8 41.5667-21.9 40.3667-22.1C39.7667-22.2 38.9667-22.3 38.0667-22.5C37.5667-22.6 37.0667-22.8 36.5667-23C35.8667-23.3 36.1667-24.6 36.1667-25.1C36.8667-28.7 41.0667-34.3 45.1667-34.3C49.3667-34.3 53.4667-28.7 54.1667-25.1C54.1667-24.9 54.2667-24.6 54.2667-24.2C54.2667-23.6 54.1667-23.2 53.8667-23ZM25.2667-16C21.8667-16.2 22.0667-42.8 25.2667-42.8C28.7667-42.8 28.7667-15.8 25.2667-16ZM45.1667-10.6C43.0667-10.5 39.5667-14.8 37.7667-18.7C38.9667-18.3 39.8667-18.2 40.4667-18.1C41.3667-18 41.4667-18 41.6667-17.7C41.6667-17.7 44.4667-14.7 45.1667-14.7C45.7667-14.7 48.9667-17.6 48.9667-17.6C49.1667-17.8 49.2667-17.9 50.0667-18C50.6667-18.1 51.4667-18.3 52.5667-18.6C50.7667-14.7 47.2667-10.5 45.1667-10.6ZM65.0667-16C61.6667-16.2 61.8667-42.8 65.0667-42.8C68.4667-42.8 68.5667-15.8 65.0667-16Z"/>
  </g>
  <g id="Medium-S" transform="matrix(1 0 0 1 1701.82 696)">
   <path class="SFSymbolsPreviewWireframe" d="M71.8168-50.5C70.4168-51.9 67.7168-54.5 64.0168-55.2C68.0168-59.1 72.7168-64 72.5168-64.5C72.2168-65.2 65.4168-65.1 59.9168-63.1C62.1168-69.3 62.0168-78.5 60.5168-79.2C58.7168-80 37.2168-68.9 39.2168-56.8C29.2168-56.5 22.0168-55.4 17.7168-50.4C12.3168-44.036 14.4168-4.936 21.0168 0.982C23.9168 3.682 65.7168 3.582 68.6168 0.982C74.9168-4.9 77.1168-45.2 71.8168-50.5ZM53.4168-23C52.8168-22.8 52.4168-22.6 51.9168-22.5C50.8168-22.2 50.1168-22 49.5168-21.9C48.5168-21.7 47.6168-21.6 46.8168-20.6C46.8168-20.6 45.2168-19.3 44.7168-18.8C44.3168-19.3 43.1168-20.5 43.1168-20.5C42.2168-21.8 41.1168-21.9 39.9168-22.1C39.3168-22.2 38.5168-22.3 37.6168-22.5C37.1168-22.6 36.6168-22.8 36.1168-23C35.4168-23.3 35.7168-24.6 35.7168-25.1C36.4168-28.7 40.6168-34.3 44.7168-34.3C48.9168-34.3 53.0168-28.7 53.7168-25.1C53.7168-24.9 53.8168-24.6 53.8168-24.2C53.8168-23.6 53.7168-23.2 53.4168-23ZM24.8168-16C21.4168-16.2 21.6168-42.8 24.8168-42.8C28.3168-42.8 28.3168-15.8 24.8168-16ZM44.7168-10.6C42.6168-10.5 39.1168-14.8 37.3168-18.7C38.5168-18.3 39.4168-18.2 40.0168-18.1C40.9168-18 41.0168-18 41.2168-17.7C41.2168-17.7 44.0168-14.7 44.7168-14.7C45.3168-14.7 48.5168-17.6 48.5168-17.6C48.7168-17.8 48.8168-17.9 49.6168-18C50.2168-18.1 51.0168-18.3 52.1168-18.6C50.3168-14.7 46.8168-10.5 44.7168-10.6ZM64.6168-16C61.2168-16.2 61.4168-42.8 64.6168-42.8C68.0168-42.8 68.1168-15.8 64.6168-16Z"/>
  </g>
  <g id="Regular-S" transform="matrix(1 0 0 1 1405.69 696)">
   <path class="SFSymbolsPreviewWireframe" d="M71.23-50.5C69.83-51.9 67.13-54.5 63.43-55.2C67.43-59.1 72.13-64 71.93-64.5C71.63-65.2 64.83-65.1 59.33-63.1C61.53-69.3 61.43-78.5 59.93-79.2C58.13-80 36.63-68.9 38.63-56.8C28.63-56.5 21.43-55.4 17.13-50.4C11.73-44 13.83-4.9 20.43 1C23.33 3.7 65.13 3.6 68.03 1C74.33-4.9 76.53-45.2 71.23-50.5ZM52.83-23C52.23-22.8 51.83-22.6 51.33-22.5C50.23-22.2 49.53-22 48.93-21.9C47.93-21.7 47.03-21.6 46.23-20.6C46.23-20.6 44.63-19.3 44.13-18.8C43.73-19.3 42.53-20.5 42.53-20.5C41.63-21.8 40.53-21.9 39.33-22.1C38.73-22.2 37.93-22.3 37.03-22.5C36.53-22.6 36.03-22.8 35.53-23C34.83-23.3 35.13-24.6 35.13-25.1C35.83-28.7 40.03-34.3 44.13-34.3C48.33-34.3 52.43-28.7 53.13-25.1C53.13-24.9 53.23-24.6 53.23-24.2C53.23-23.6 53.13-23.2 52.83-23ZM24.23-16C20.83-16.2 21.03-42.8 24.23-42.8C27.73-42.8 27.73-15.8 24.23-16ZM44.13-10.6C42.03-10.5 38.53-14.8 36.73-18.7C37.93-18.3 38.83-18.2 39.43-18.1C40.33-18 40.43-18 40.63-17.7C40.63-17.7 43.43-14.7 44.13-14.7C44.73-14.7 47.93-17.6 47.93-17.6C48.13-17.8 48.23-17.9 49.03-18C49.63-18.1 50.43-18.3 51.53-18.6C49.73-14.7 46.23-10.5 44.13-10.6ZM64.03-16C60.63-16.2 60.83-42.8 64.03-42.8C67.43-42.8 67.53-15.8 64.03-16Z"/>
  </g>
  <g id="Light-S" transform="matrix(1 0 0 1 1109.73 696)">
   <path class="SFSymbolsPreviewWireframe" d="M70.6857-50.5C69.2857-51.9 66.5857-54.5 62.8857-55.2C66.8857-59.1 71.5857-64 71.3857-64.5C71.0857-65.2 64.2857-65.1 58.7857-63.1C60.9857-69.3 60.8857-78.5 59.3857-79.2C57.619-80.0667 36.0857-68.9667 38.0857-56.8333C28.0857-56.5333 20.8857-55.4333 16.5857-50.4333C11.1857-44.0333 13.2857-4.93333 19.8857 0.966667C22.7857 3.66667 64.5857 3.56667 67.4857 0.966667C73.7857-4.9 75.9857-45.2 70.6857-50.5ZM52.2857-23C51.6857-22.8 51.2857-22.6 50.7857-22.5C49.6857-22.2 48.9857-22 48.3857-21.9C47.3857-21.7 46.4857-21.6 45.6857-20.6C45.6857-20.6 44.0857-19.3 43.5857-18.8C43.1857-19.3 41.9857-20.5 41.9857-20.5C41.0857-21.8 39.9857-21.9 38.7857-22.1C38.1857-22.2 37.3857-22.3 36.4857-22.5C35.9857-22.6 35.4857-22.8 34.9857-23C34.2857-23.3 34.5857-24.6 34.5857-25.1C35.2857-28.7 39.4857-34.3 43.5857-34.3C47.7857-34.3 51.8857-28.7 52.5857-25.1C52.5857-24.9 52.6857-24.6 52.6857-24.2C52.6857-23.6 52.5857-23.2 52.2857-23ZM23.6857-16C20.2857-16.2 20.4857-42.8 23.6857-42.8C27.1857-42.8 27.1857-15.8 23.6857-16ZM43.619-10.6C41.519-10.5 38.019-14.8 36.219-18.7C37.419-18.3 38.319-18.2 38.919-18.1C39.819-18 39.919-18 40.119-17.7C40.119-17.7 42.919-14.7 43.619-14.7C44.219-14.7 47.419-17.6 47.419-17.6C47.619-17.8 47.719-17.9 48.519-18C49.119-18.1 49.919-18.3 51.019-18.6C49.1857-14.7 45.6857-10.5 43.619-10.6ZM63.4857-16C60.0857-16.2 60.2857-42.8 63.4857-42.8C66.8857-42.8 66.9857-15.8 63.4857-16Z"/>
  </g>
  <g id="Thin-S" transform="matrix(1 0 0 1 814.014 696)">
   <path class="SFSymbolsPreviewWireframe" d="M69.9657-50.5C68.5657-51.9 65.8657-54.5 62.1657-55.2C66.1657-59.1 70.8657-64 70.6657-64.5C70.3657-65.2 63.5657-65.1 58.0657-63.1C60.2657-69.3 60.1657-78.5 58.6657-79.2C56.9432-80.1548 35.3657-69.0548 37.3657-56.8774C27.3657-56.5774 20.1657-55.4774 15.8657-50.4774C10.4657-44.0774 12.5657-4.97742 19.1657 0.922581C22.0657 3.62258 63.8657 3.52258 66.7657 0.922581C73.0657-4.9 75.2657-45.2 69.9657-50.5ZM51.5657-23C50.9657-22.8 50.5657-22.6 50.0657-22.5C48.9657-22.2 48.2657-22 47.6657-21.9C46.6657-21.7 45.7657-21.6 44.9657-20.6C44.9657-20.6 43.3657-19.3 42.8657-18.8C42.4657-19.3 41.2657-20.5 41.2657-20.5C40.3657-21.8 39.2657-21.9 38.0657-22.1C37.4657-22.2 36.6657-22.3 35.7657-22.5C35.2657-22.6 34.7657-22.8 34.2657-23C33.5657-23.3 33.8657-24.6 33.8657-25.1C34.5657-28.7 38.7657-34.3 42.8657-34.3C47.0657-34.3 51.1657-28.7 51.8657-25.1C51.8657-24.9 51.9657-24.6 51.9657-24.2C51.9657-23.6 51.8657-23.2 51.5657-23ZM22.9657-16C19.5657-16.2 19.7657-42.8 22.9657-42.8C26.4657-42.8 26.4657-15.8 22.9657-16ZM42.9432-10.6C40.8432-10.5 37.3432-14.8 35.5432-18.7C36.7432-18.3 37.6432-18.2 38.2432-18.1C39.1432-18 39.2432-18 39.4432-17.7C39.4432-17.7 42.2432-14.7 42.9432-14.7C43.5432-14.7 46.7432-17.6 46.7432-17.6C46.9432-17.8 47.0432-17.9 47.8432-18C48.4432-18.1 49.2432-18.3 50.3432-18.6C48.4657-14.7 44.9657-10.5 42.9432-10.6ZM62.7657-16C59.3657-16.2 59.5657-42.8 62.7657-42.8C66.1657-42.8 66.2657-15.8 62.7657-16Z"/>
  </g>
  <g id="Ultralight-S" transform="matrix(1 0 0 1 517.811 696)">
   <path class="SFSymbolsPreviewWireframe" d="M69.597-50.5C68.197-51.9 65.497-54.5 61.797-55.2C65.797-59.1 70.497-64 70.297-64.5C69.997-65.2 63.197-65.1 57.697-63.1C59.897-69.3 59.797-78.5 58.297-79.2C56.597-80.2 34.997-69.1 36.997-56.9C26.997-56.6 19.797-55.5 15.497-50.5C10.097-44.1 12.197-5 18.797 0.9C21.697 3.6 63.497 3.5 66.397 0.9C72.697-4.9 74.897-45.2 69.597-50.5ZM51.197-23C50.597-22.8 50.197-22.6 49.697-22.5C48.597-22.2 47.897-22 47.297-21.9C46.297-21.7 45.397-21.6 44.597-20.6C44.597-20.6 42.997-19.3 42.497-18.8C42.097-19.3 40.897-20.5 40.897-20.5C39.997-21.8 38.897-21.9 37.697-22.1C37.097-22.2 36.297-22.3 35.397-22.5C34.897-22.6 34.397-22.8 33.897-23C33.197-23.3 33.497-24.6 33.497-25.1C34.197-28.7 38.397-34.3 42.497-34.3C46.697-34.3 50.797-28.7 51.497-25.1C51.497-24.9 51.597-24.6 51.597-24.2C51.597-23.6 51.497-23.2 51.197-23ZM22.597-16C19.197-16.2 19.397-42.8 22.597-42.8C26.097-42.8 26.097-15.8 22.597-16ZM42.597-10.6C40.497-10.5 36.997-14.8 35.197-18.7C36.397-18.3 37.297-18.2 37.897-18.1C38.797-18 38.897-18 39.097-17.7C39.097-17.7 41.897-14.7 42.597-14.7C43.197-14.7 46.397-17.6 46.397-17.6C46.597-17.8 46.697-17.9 47.497-18C48.097-18.1 48.897-18.3 49.997-18.6C48.097-14.7 44.597-10.5 42.597-10.6ZM62.397-16C58.997-16.2 59.197-42.8 62.397-42.8C65.797-42.8 65.897-15.8 62.397-16Z"/>
  </g>
 </g>
</svg>
